<?xml version="1.0" encoding="UTF-8" standalone="no"?>
<!-- Created with Inkscape (http://www.inkscape.org/) -->

<svg
   xmlns:dc="http://purl.org/dc/elements/1.1/"
   xmlns:cc="http://creativecommons.org/ns#"
   xmlns:rdf="http://www.w3.org/1999/02/22-rdf-syntax-ns#"
   xmlns:svg="http://www.w3.org/2000/svg"
   xmlns="http://www.w3.org/2000/svg"
   xmlns:sodipodi="http://sodipodi.sourceforge.net/DTD/sodipodi-0.dtd"
   xmlns:inkscape="http://www.inkscape.org/namespaces/inkscape"
   version="1.1"
   id="svg2"
   xml:space="preserve"
   width="666.66669"
   height="666.66669"
   viewBox="0 0 666.66669 666.66669"
   sodipodi:docname="IndicaAi-logo.svg"
   inkscape:version="0.92.4 (5da689c313, 2019-01-14)"><metadata
     id="metadata8"><rdf:RDF><cc:Work
         rdf:about=""><dc:format>image/svg+xml</dc:format><dc:type
           rdf:resource="http://purl.org/dc/dcmitype/StillImage" /><dc:title></dc:title></cc:Work></rdf:RDF></metadata><defs
     id="defs6"><clipPath
       clipPathUnits="userSpaceOnUse"
       id="clipPath18"><path
         d="M 0,0 H 500 V 500 H 0 Z"
         id="path16"
         inkscape:connector-curvature="0" /></clipPath><radialGradient
       fx="0"
       fy="0"
       cx="0"
       cy="0"
       r="1"
       gradientUnits="userSpaceOnUse"
       gradientTransform="matrix(279.98795,0,0,-279.98795,250,250)"
       spreadMethod="pad"
       id="radialGradient30"><stop
         style="stop-opacity:1;stop-color:#fbfbfb"
         offset="0"
         id="stop24" /><stop
         style="stop-opacity:1;stop-color:#fbfbfb"
         offset="0.59100706"
         id="stop26" /><stop
         style="stop-opacity:1;stop-color:#eee6f5"
         offset="1"
         id="stop28" /></radialGradient><clipPath
       clipPathUnits="userSpaceOnUse"
       id="clipPath40"><path
         d="M 0,500 H 500 V 0 H 0 Z"
         id="path38"
         inkscape:connector-curvature="0" /></clipPath><clipPath
       clipPathUnits="userSpaceOnUse"
       id="clipPath48"><path
         d="M 56.4104,172.217 H 246.119 V 156.852 H 56.4104 Z"
         id="path46"
         inkscape:connector-curvature="0" /></clipPath><clipPath
       clipPathUnits="userSpaceOnUse"
       id="clipPath52"><path
         d="m 246.119,164.534 c 0,4.243 -42.468,7.683 -94.854,7.683 -52.387,0 -94.854,-3.44 -94.854,-7.683 0,-4.243 42.467,-7.682 94.854,-7.682 52.386,0 94.854,3.439 94.854,7.682"
         id="path50"
         inkscape:connector-curvature="0" /></clipPath><clipPath
       clipPathUnits="userSpaceOnUse"
       id="clipPath56"><path
         d="M -32768,32767 H 32767 V -32768 H -32768 Z"
         id="path54"
         inkscape:connector-curvature="0" /></clipPath><radialGradient
       fx="0"
       fy="0"
       cx="0"
       cy="0"
       r="1"
       gradientUnits="userSpaceOnUse"
       gradientTransform="matrix(89.851776,0,0,-6.1400304,151.26476,164.53444)"
       spreadMethod="pad"
       id="radialGradient68"><stop
         style="stop-opacity:1;stop-color:#ffffff"
         offset="0"
         id="stop58" /><stop
         style="stop-opacity:1;stop-color:#ffffff"
         offset="0.109788"
         id="stop60" /><stop
         style="stop-opacity:1;stop-color:#ffffff"
         offset="0.25871075"
         id="stop62" /><stop
         style="stop-opacity:0;stop-color:#ffffff"
         offset="0.999362"
         id="stop64" /><stop
         style="stop-opacity:0;stop-color:#ffffff"
         offset="1"
         id="stop66" /></radialGradient><mask
       maskUnits="userSpaceOnUse"
       x="0"
       y="0"
       width="1"
       height="1"
       id="mask70"><g
         id="g80"><g
           clip-path="url(#clipPath56)"
           id="g78"><g
             id="g76"><g
               id="g74"><path
                 d="M -32768,32767 H 32767 V -32768 H -32768 Z"
                 style="fill:url(#radialGradient68);stroke:none"
                 id="path72"
                 inkscape:connector-curvature="0" /></g></g></g></g></mask><radialGradient
       fx="0"
       fy="0"
       cx="0"
       cy="0"
       r="1"
       gradientUnits="userSpaceOnUse"
       gradientTransform="matrix(89.851776,0,0,-6.1400304,151.26476,164.53444)"
       spreadMethod="pad"
       id="radialGradient92"><stop
         style="stop-opacity:1;stop-color:#666666"
         offset="0"
         id="stop82" /><stop
         style="stop-opacity:1;stop-color:#666666"
         offset="0.109788"
         id="stop84" /><stop
         style="stop-opacity:1;stop-color:#666666"
         offset="0.25871075"
         id="stop86" /><stop
         style="stop-opacity:1;stop-color:#ffffff"
         offset="0.999362"
         id="stop88" /><stop
         style="stop-opacity:1;stop-color:#ffffff"
         offset="1"
         id="stop90" /></radialGradient><clipPath
       clipPathUnits="userSpaceOnUse"
       id="clipPath118"><path
         d="M 77.077,322.046 C 51.274,280.543 64.504,226.101 106.239,201.006 v 0 c 17.587,-10.575 37.402,-14.23 56.283,-11.763 v 0 c 3.342,0.437 5.621,3.609 4.95,6.911 v 0 c -0.713,3.504 -4.271,5.598 -7.702,4.597 v 0 c -16.811,-4.903 -33.657,-0.049 -49.644,10.295 v 0 C 82.04,229.217 75.903,264.382 91.558,293.325 v 0 c 16.501,30.508 53.234,39.048 82.934,21.189 v 0 c 6.172,-3.713 11.472,-8.321 15.836,-13.558 v 0 c 6.399,-7.68 16.475,-11.242 26.174,-8.827 v 0 l 0.826,0.205 c 10.879,2.709 16.254,14.93 10.97,24.817 v 0 c -7.605,14.229 -19.256,26.545 -34.48,35.051 v 0 c -13.316,7.439 -27.861,10.98 -42.253,10.98 v 0 c -29.347,10e-4 -58.066,-14.721 -74.488,-41.136"
         id="path116"
         inkscape:connector-curvature="0" /></clipPath><linearGradient
       x1="0"
       y1="0"
       x2="1"
       y2="0"
       gradientUnits="userSpaceOnUse"
       gradientTransform="matrix(166.47337,0,0,-166.47337,63.875923,275.84326)"
       spreadMethod="pad"
       id="linearGradient128"><stop
         style="stop-opacity:1;stop-color:#fa71cd"
         offset="0"
         id="stop124" /><stop
         style="stop-opacity:1;stop-color:#c471f5"
         offset="1"
         id="stop126" /></linearGradient><clipPath
       clipPathUnits="userSpaceOnUse"
       id="clipPath138"><path
         d="M 0,500 H 500 V 0 H 0 Z"
         id="path136"
         inkscape:connector-curvature="0" /></clipPath><clipPath
       clipPathUnits="userSpaceOnUse"
       id="clipPath146"><path
         d="M 63.8759,363.182 H 230.349 V 188.504 H 63.8759 Z"
         id="path144"
         inkscape:connector-curvature="0" /></clipPath><clipPath
       clipPathUnits="userSpaceOnUse"
       id="clipPath150"><path
         d="m 159.77,200.751 c -16.812,-4.903 -33.656,-0.049 -49.645,10.295 -28.086,18.172 -34.222,53.336 -18.567,82.279 16.501,30.508 53.234,39.048 82.934,21.189 6.173,-3.712 11.472,-8.321 15.836,-13.559 6.398,-7.68 16.475,-11.241 26.174,-8.826 l 0.826,0.205 c 10.879,2.709 16.255,14.93 10.97,24.817 -7.605,14.229 -19.256,26.545 -34.481,35.051 -40.469,22.609 -92.264,9.213 -116.74,-30.156 -25.803,-41.503 -12.573,-95.945 29.161,-121.04 17.587,-10.575 37.403,-14.23 56.284,-11.763 3.342,0.438 5.621,3.609 4.95,6.911 -0.713,3.504 -4.27,5.598 -7.702,4.597"
         id="path148"
         inkscape:connector-curvature="0" /></clipPath><clipPath
       clipPathUnits="userSpaceOnUse"
       id="clipPath154"><path
         d="M -32768,32767 H 32767 V -32768 H -32768 Z"
         id="path152"
         inkscape:connector-curvature="0" /></clipPath><linearGradient
       x1="0"
       y1="0"
       x2="1"
       y2="0"
       gradientUnits="userSpaceOnUse"
       gradientTransform="matrix(1.6941204,-92.837791,-92.837791,-1.6941204,146.9413,301.56482)"
       spreadMethod="pad"
       id="linearGradient166"><stop
         style="stop-opacity:1;stop-color:#ffffff"
         offset="0"
         id="stop156" /><stop
         style="stop-opacity:1;stop-color:#ffffff"
         offset="0.109788"
         id="stop158" /><stop
         style="stop-opacity:1;stop-color:#ffffff"
         offset="0.25871075"
         id="stop160" /><stop
         style="stop-opacity:0;stop-color:#ffffff"
         offset="0.999362"
         id="stop162" /><stop
         style="stop-opacity:0;stop-color:#ffffff"
         offset="1"
         id="stop164" /></linearGradient><mask
       maskUnits="userSpaceOnUse"
       x="0"
       y="0"
       width="1"
       height="1"
       id="mask168"><g
         id="g178"><g
           clip-path="url(#clipPath154)"
           id="g176"><g
             id="g174"><g
               id="g172"><path
                 d="M -32768,32767 H 32767 V -32768 H -32768 Z"
                 style="fill:url(#linearGradient166);stroke:none"
                 id="path170"
                 inkscape:connector-curvature="0" /></g></g></g></g></mask><linearGradient
       x1="0"
       y1="0"
       x2="1"
       y2="0"
       gradientUnits="userSpaceOnUse"
       gradientTransform="matrix(1.6941204,-92.837791,-92.837791,-1.6941204,146.9413,301.56482)"
       spreadMethod="pad"
       id="linearGradient190"><stop
         style="stop-opacity:1;stop-color:#666666"
         offset="0"
         id="stop180" /><stop
         style="stop-opacity:1;stop-color:#666666"
         offset="0.109788"
         id="stop182" /><stop
         style="stop-opacity:1;stop-color:#666666"
         offset="0.25871075"
         id="stop184" /><stop
         style="stop-opacity:1;stop-color:#ffffff"
         offset="0.999362"
         id="stop186" /><stop
         style="stop-opacity:1;stop-color:#ffffff"
         offset="1"
         id="stop188" /></linearGradient><clipPath
       clipPathUnits="userSpaceOnUse"
       id="clipPath216"><path
         d="M 77.077,322.046 C 51.274,280.543 64.504,226.101 106.239,201.006 v 0 c 11.656,-7.01 24.292,-10.96 36.984,-12.121 v 0 C 69.714,202.126 74.431,269.993 88.449,292.927 v 0 c 18.09,29.593 56.343,39.446 86.043,21.587 v 0 c 6.172,-3.713 11.472,-8.321 15.836,-13.558 v 0 c 6.399,-7.68 16.475,-11.242 26.174,-8.827 v 0 l 0.826,0.205 c 10.879,2.709 16.254,14.93 10.97,24.817 v 0 c -7.605,14.229 -19.256,26.545 -34.48,35.051 v 0 c -13.316,7.439 -27.861,10.98 -42.253,10.98 v 0 c -29.347,10e-4 -58.066,-14.721 -74.488,-41.136"
         id="path214"
         inkscape:connector-curvature="0" /></clipPath><linearGradient
       x1="0"
       y1="0"
       x2="1"
       y2="0"
       gradientUnits="userSpaceOnUse"
       gradientTransform="matrix(-22.969807,-107.19243,-107.19243,22.969807,155.03751,333.1839)"
       spreadMethod="pad"
       id="linearGradient226"><stop
         style="stop-opacity:1;stop-color:#764ba2"
         offset="0"
         id="stop222" /><stop
         style="stop-opacity:1;stop-color:#667eea"
         offset="1"
         id="stop224" /></linearGradient><clipPath
       clipPathUnits="userSpaceOnUse"
       id="clipPath236"><path
         d="M 0,500 H 500 V 0 H 0 Z"
         id="path234"
         inkscape:connector-curvature="0" /></clipPath><clipPath
       clipPathUnits="userSpaceOnUse"
       id="clipPath244"><path
         d="M 63.8759,363.182 H 230.349 V 188.884 H 63.8759 Z"
         id="path242"
         inkscape:connector-curvature="0" /></clipPath><clipPath
       clipPathUnits="userSpaceOnUse"
       id="clipPath248"><path
         d="m 88.45,292.927 c 18.089,29.593 56.342,39.446 86.042,21.587 6.173,-3.712 11.472,-8.321 15.836,-13.559 6.398,-7.68 16.475,-11.241 26.174,-8.826 l 0.826,0.205 c 10.879,2.709 16.255,14.93 10.97,24.817 -7.604,14.229 -19.256,26.545 -34.481,35.051 -40.469,22.609 -92.264,9.213 -116.74,-30.156 -25.803,-41.503 -12.573,-95.945 29.161,-121.04 11.657,-7.01 24.292,-10.96 36.986,-12.121 -73.51,13.242 -68.793,81.108 -54.774,104.042"
         id="path246"
         inkscape:connector-curvature="0" /></clipPath><clipPath
       clipPathUnits="userSpaceOnUse"
       id="clipPath252"><path
         d="M -32768,32767 H 32767 V -32768 H -32768 Z"
         id="path250"
         inkscape:connector-curvature="0" /></clipPath><linearGradient
       x1="0"
       y1="0"
       x2="1"
       y2="0"
       gradientUnits="userSpaceOnUse"
       gradientTransform="matrix(-87.077782,-38.964767,-38.964767,87.077782,191.9272,300.18304)"
       spreadMethod="pad"
       id="linearGradient264"><stop
         style="stop-opacity:1;stop-color:#ffffff"
         offset="0"
         id="stop254" /><stop
         style="stop-opacity:1;stop-color:#ffffff"
         offset="0.109788"
         id="stop256" /><stop
         style="stop-opacity:1;stop-color:#ffffff"
         offset="0.25871075"
         id="stop258" /><stop
         style="stop-opacity:0;stop-color:#ffffff"
         offset="0.999362"
         id="stop260" /><stop
         style="stop-opacity:0;stop-color:#ffffff"
         offset="1"
         id="stop262" /></linearGradient><mask
       maskUnits="userSpaceOnUse"
       x="0"
       y="0"
       width="1"
       height="1"
       id="mask266"><g
         id="g276"><g
           clip-path="url(#clipPath252)"
           id="g274"><g
             id="g272"><g
               id="g270"><path
                 d="M -32768,32767 H 32767 V -32768 H -32768 Z"
                 style="fill:url(#linearGradient264);stroke:none"
                 id="path268"
                 inkscape:connector-curvature="0" /></g></g></g></g></mask><linearGradient
       x1="0"
       y1="0"
       x2="1"
       y2="0"
       gradientUnits="userSpaceOnUse"
       gradientTransform="matrix(-87.077782,-38.964767,-38.964767,87.077782,191.9272,300.18304)"
       spreadMethod="pad"
       id="linearGradient288"><stop
         style="stop-opacity:1;stop-color:#666666"
         offset="0"
         id="stop278" /><stop
         style="stop-opacity:1;stop-color:#666666"
         offset="0.109788"
         id="stop280" /><stop
         style="stop-opacity:1;stop-color:#666666"
         offset="0.25871075"
         id="stop282" /><stop
         style="stop-opacity:1;stop-color:#ffffff"
         offset="0.999362"
         id="stop284" /><stop
         style="stop-opacity:1;stop-color:#ffffff"
         offset="1"
         id="stop286" /></linearGradient><clipPath
       clipPathUnits="userSpaceOnUse"
       id="clipPath314"><path
         d="M 77.07,322.046 C 67.521,306.686 63.331,289.555 63.941,272.794 v 0 c -0.695,36.126 29.036,61.465 65.433,62.646 v 0 c 36.389,1.18 53.594,-19.749 62.532,-33.454 v 0 c 5.459,-8.373 14.891,-12.272 24.59,-9.857 v 0 l 0.826,0.205 c 10.877,2.709 16.254,14.93 10.969,24.817 v 0 c -7.604,14.229 -19.255,26.545 -34.48,35.051 v 0 c -13.316,7.439 -27.861,10.98 -42.253,10.98 v 0 C 122.211,363.183 93.492,348.461 77.07,322.046"
         id="path312"
         inkscape:connector-curvature="0" /></clipPath><linearGradient
       x1="0"
       y1="0"
       x2="1"
       y2="0"
       gradientUnits="userSpaceOnUse"
       gradientTransform="matrix(166.45981,0,0,-166.45981,63.882702,317.98828)"
       spreadMethod="pad"
       id="linearGradient324"><stop
         style="stop-opacity:1;stop-color:#4facfe"
         offset="0"
         id="stop320" /><stop
         style="stop-opacity:1;stop-color:#00f2fe"
         offset="1"
         id="stop322" /></linearGradient><clipPath
       clipPathUnits="userSpaceOnUse"
       id="clipPath334"><path
         d="M 129.374,338.679 C 92.977,337.498 63.246,312.159 63.941,276.034 v 0 c -0.019,0.52 -0.019,1.042 -0.029,1.563 v 0 c -0.03,-1.603 -0.03,-3.205 0.029,-4.803 v 0 c -0.695,36.126 29.036,61.465 65.433,62.646 v 0 c 36.389,1.18 53.594,-19.749 62.532,-33.454 v 0 c 5.459,-8.373 14.891,-12.272 24.59,-9.857 v 0 l 0.825,0.205 c 8.566,2.133 13.714,10.162 12.94,18.306 v 0 c -0.66,-6.942 -5.518,-13.218 -12.94,-15.067 v 0 l -0.825,-0.205 c -9.699,-2.414 -19.131,1.484 -24.59,9.857 v 0 c -8.694,13.332 -25.216,33.501 -59.606,33.502 v 0 c -0.962,0 -1.935,-0.016 -2.926,-0.048"
         id="path332"
         inkscape:connector-curvature="0" /></clipPath><clipPath
       clipPathUnits="userSpaceOnUse"
       id="clipPath342"><path
         d="M -32768,32767 H 32767 V -32768 H -32768 Z"
         id="path340"
         inkscape:connector-curvature="0" /></clipPath><linearGradient
       x1="0"
       y1="0"
       x2="1"
       y2="0"
       gradientUnits="userSpaceOnUse"
       gradientTransform="matrix(166.44574,0,0,-166.44574,63.892399,305.76053)"
       spreadMethod="pad"
       id="linearGradient348"><stop
         style="stop-opacity:1;stop-color:#ffffff"
         offset="0"
         id="stop344" /><stop
         style="stop-opacity:0;stop-color:#ffffff"
         offset="1"
         id="stop346" /></linearGradient><mask
       maskUnits="userSpaceOnUse"
       x="0"
       y="0"
       width="1"
       height="1"
       id="mask350"><g
         id="g360"><g
           clip-path="url(#clipPath342)"
           id="g358"><g
             id="g356"><g
               id="g354"><path
                 d="M -32768,32767 H 32767 V -32768 H -32768 Z"
                 style="fill:url(#linearGradient348);stroke:none"
                 id="path352"
                 inkscape:connector-curvature="0" /></g></g></g></g></mask><linearGradient
       x1="0"
       y1="0"
       x2="1"
       y2="0"
       gradientUnits="userSpaceOnUse"
       gradientTransform="matrix(166.44574,0,0,-166.44574,63.892399,305.76053)"
       spreadMethod="pad"
       id="linearGradient370"><stop
         style="stop-opacity:1;stop-color:#00edff"
         offset="0"
         id="stop366" /><stop
         style="stop-opacity:1;stop-color:#00f2fe"
         offset="1"
         id="stop368" /></linearGradient><clipPath
       clipPathUnits="userSpaceOnUse"
       id="clipPath380"><path
         d="m 172.341,200.138 c 0,-3.489 2.829,-6.317 6.318,-6.317 v 0 c 3.489,0 6.318,2.828 6.318,6.317 v 0 c 0,3.49 -2.829,6.318 -6.318,6.318 v 0 c -3.489,0 -6.318,-2.828 -6.318,-6.318"
         id="path378"
         inkscape:connector-curvature="0" /></clipPath><linearGradient
       x1="0"
       y1="0"
       x2="1"
       y2="0"
       gradientUnits="userSpaceOnUse"
       gradientTransform="matrix(-3.194381,-14.534434,-14.534434,3.194381,180.0116,206.29198)"
       spreadMethod="pad"
       id="linearGradient390"><stop
         style="stop-opacity:1;stop-color:#fa71cd"
         offset="0"
         id="stop386" /><stop
         style="stop-opacity:1;stop-color:#c471f5"
         offset="1"
         id="stop388" /></linearGradient><clipPath
       clipPathUnits="userSpaceOnUse"
       id="clipPath400"><path
         d="m 110.126,208.885 c 15.987,-10.345 32.833,-15.2 49.644,-10.296 v 0 c 3.431,1.002 6.989,-1.092 7.702,-4.596 v 0 c 0.005,-0.023 0.005,-0.046 0.01,-0.069 v 0 c 0.136,0.715 0.145,1.469 -0.01,2.231 v 0 c -0.713,3.503 -4.271,5.597 -7.702,4.596 v 0 c -16.811,-4.903 -33.657,-0.049 -49.644,10.295 v 0 C 92.345,222.55 83.374,240.863 83.147,260.097 v 0 c -0.444,-20.016 8.533,-39.278 26.979,-51.212"
         id="path398"
         inkscape:connector-curvature="0" /></clipPath><clipPath
       clipPathUnits="userSpaceOnUse"
       id="clipPath408"><path
         d="M -32768,32767 H 32767 V -32768 H -32768 Z"
         id="path406"
         inkscape:connector-curvature="0" /></clipPath><linearGradient
       x1="0"
       y1="0"
       x2="1"
       y2="0"
       gradientUnits="userSpaceOnUse"
       gradientTransform="matrix(51.748058,-7.7976532,-7.7976532,-51.748058,111.54078,228.58003)"
       spreadMethod="pad"
       id="linearGradient416"><stop
         style="stop-opacity:1;stop-color:#ffffff"
         offset="0"
         id="stop410" /><stop
         style="stop-opacity:0;stop-color:#ffffff"
         offset="0.992146"
         id="stop412" /><stop
         style="stop-opacity:0;stop-color:#ffffff"
         offset="1"
         id="stop414" /></linearGradient><mask
       maskUnits="userSpaceOnUse"
       x="0"
       y="0"
       width="1"
       height="1"
       id="mask418"><g
         id="g428"><g
           clip-path="url(#clipPath408)"
           id="g426"><g
             id="g424"><g
               id="g422"><path
                 d="M -32768,32767 H 32767 V -32768 H -32768 Z"
                 style="fill:url(#linearGradient416);stroke:none"
                 id="path420"
                 inkscape:connector-curvature="0" /></g></g></g></g></mask><linearGradient
       x1="0"
       y1="0"
       x2="1"
       y2="0"
       gradientUnits="userSpaceOnUse"
       gradientTransform="matrix(51.748058,-7.7976532,-7.7976532,-51.748058,111.54078,228.58003)"
       spreadMethod="pad"
       id="linearGradient440"><stop
         style="stop-opacity:1;stop-color:#ff99f5"
         offset="0"
         id="stop434" /><stop
         style="stop-opacity:1;stop-color:#c471f5"
         offset="0.992146"
         id="stop436" /><stop
         style="stop-opacity:1;stop-color:#c471f5"
         offset="1"
         id="stop438" /></linearGradient><clipPath
       clipPathUnits="userSpaceOnUse"
       id="clipPath450"><path
         d="m 188.858,207.994 c 0,-2.551 2.067,-4.618 4.618,-4.618 v 0 c 2.55,0 4.618,2.067 4.618,4.618 v 0 c 0,2.55 -2.068,4.617 -4.618,4.617 v 0 c -2.551,0 -4.618,-2.067 -4.618,-4.617"
         id="path448"
         inkscape:connector-curvature="0" /></clipPath><linearGradient
       x1="0"
       y1="0"
       x2="1"
       y2="0"
       gradientUnits="userSpaceOnUse"
       gradientTransform="matrix(-1.2777524,-9.9025803,-9.9025803,1.2777524,194.09705,212.81097)"
       spreadMethod="pad"
       id="linearGradient460"><stop
         style="stop-opacity:1;stop-color:#fa71cd"
         offset="0"
         id="stop456" /><stop
         style="stop-opacity:1;stop-color:#c471f5"
         offset="1"
         id="stop458" /></linearGradient><clipPath
       clipPathUnits="userSpaceOnUse"
       id="clipPath470"><path
         d="m 200.892,215.589 c 0,-1.645 1.333,-2.978 2.978,-2.978 v 0 c 1.645,0 2.978,1.333 2.978,2.978 v 0 c 0,1.644 -1.333,2.978 -2.978,2.978 v 0 c -1.645,0 -2.978,-1.334 -2.978,-2.978"
         id="path468"
         inkscape:connector-curvature="0" /></clipPath><linearGradient
       x1="0"
       y1="0"
       x2="1"
       y2="0"
       gradientUnits="userSpaceOnUse"
       gradientTransform="matrix(-1.2777524,-6.548481,-6.548481,1.2777524,204.38817,218.24457)"
       spreadMethod="pad"
       id="linearGradient480"><stop
         style="stop-opacity:1;stop-color:#fa71cd"
         offset="0"
         id="stop476" /><stop
         style="stop-opacity:1;stop-color:#c471f5"
         offset="1"
         id="stop478" /></linearGradient><clipPath
       clipPathUnits="userSpaceOnUse"
       id="clipPath490"><path
         d="M 85.911,292.927 C 72.227,270.538 67.42,205.339 135.588,189.93 v 0 c 2.538,-0.46 5.086,-0.812 7.635,-1.045 v 0 C 69.714,202.126 74.431,269.993 88.449,292.927 v 0 c 11.709,19.155 31.868,30.025 52.685,30.476 v 0 c -0.396,0.008 -0.793,0.012 -1.189,0.012 v 0 c -21.292,0 -42.071,-10.919 -54.034,-30.488"
         id="path488"
         inkscape:connector-curvature="0" /></clipPath><clipPath
       clipPathUnits="userSpaceOnUse"
       id="clipPath498"><path
         d="M -32768,32767 H 32767 V -32768 H -32768 Z"
         id="path496"
         inkscape:connector-curvature="0" /></clipPath><linearGradient
       x1="0"
       y1="0"
       x2="1"
       y2="0"
       gradientUnits="userSpaceOnUse"
       gradientTransform="matrix(23.207653,99.836693,99.836693,-23.207653,106.80342,212.89062)"
       spreadMethod="pad"
       id="linearGradient504"><stop
         style="stop-opacity:1;stop-color:#ffffff"
         offset="0"
         id="stop500" /><stop
         style="stop-opacity:0;stop-color:#ffffff"
         offset="1"
         id="stop502" /></linearGradient><mask
       maskUnits="userSpaceOnUse"
       x="0"
       y="0"
       width="1"
       height="1"
       id="mask506"><g
         id="g516"><g
           clip-path="url(#clipPath498)"
           id="g514"><g
             id="g512"><g
               id="g510"><path
                 d="M -32768,32767 H 32767 V -32768 H -32768 Z"
                 style="fill:url(#linearGradient504);stroke:none"
                 id="path508"
                 inkscape:connector-curvature="0" /></g></g></g></g></mask><linearGradient
       x1="0"
       y1="0"
       x2="1"
       y2="0"
       gradientUnits="userSpaceOnUse"
       gradientTransform="matrix(23.207653,99.836693,99.836693,-23.207653,106.80342,212.89062)"
       spreadMethod="pad"
       id="linearGradient526"><stop
         style="stop-opacity:1;stop-color:#90a8fc"
         offset="0"
         id="stop522" /><stop
         style="stop-opacity:1;stop-color:#667eea"
         offset="1"
         id="stop524" /></linearGradient><clipPath
       clipPathUnits="userSpaceOnUse"
       id="clipPath544"><path
         d="M 0,500 H 500 V 0 H 0 Z"
         id="path542"
         inkscape:connector-curvature="0" /></clipPath><clipPath
       clipPathUnits="userSpaceOnUse"
       id="clipPath556"><path
         d="M 0,500 H 500 V 0 H 0 Z"
         id="path554"
         inkscape:connector-curvature="0" /></clipPath></defs><sodipodi:namedview
     pagecolor="#ffffff"
     bordercolor="#666666"
     borderopacity="1"
     objecttolerance="10"
     gridtolerance="10"
     guidetolerance="10"
     inkscape:pageopacity="0"
     inkscape:pageshadow="2"
     inkscape:window-width="2560"
     inkscape:window-height="1018"
     id="namedview4"
     showgrid="false"
     showborder="false"
     showguides="false"
     inkscape:zoom="1.0012632"
     inkscape:cx="154.91192"
     inkscape:cy="330.03437"
     inkscape:window-x="1920"
     inkscape:window-y="32"
     inkscape:window-maximized="1"
     inkscape:current-layer="g10" /><g
     id="g10"
     inkscape:groupmode="layer"
     inkscape:label="2492001"
     transform="matrix(1.3333333,0,0,-1.3333333,0,666.66667)"><g
   id="g34"><g
     id="g36"
     clip-path="url(#clipPath40)"><g
       id="g42"><g
         id="g44" /><g
         id="g110"><g
           clip-path="url(#clipPath48)"
           id="g108"
           style="opacity:0.39999402"><g
             id="g106"><g
               clip-path="url(#clipPath52)"
               id="g104"><g
                 id="g102"><g
                   id="g94" /><g
                   mask="url(#mask70)"
                   id="g100"><g
                     id="g98"><path
                       d="m 246.119,164.534 c 0,4.243 -42.468,7.683 -94.854,7.683 -52.387,0 -94.854,-3.44 -94.854,-7.683 0,-4.243 42.467,-7.682 94.854,-7.682 52.386,0 94.854,3.439 94.854,7.682"
                       style="fill:url(#radialGradient92);stroke:none"
                       id="path96"
                       inkscape:connector-curvature="0" /></g></g></g></g></g></g></g></g></g></g><g
   id="g112"><g
     id="g114"
     clip-path="url(#clipPath118)"><g
       id="g120"><g
         id="g122"><path
           d="M 77.077,322.046 C 51.274,280.543 64.504,226.101 106.239,201.006 v 0 c 17.587,-10.575 37.402,-14.23 56.283,-11.763 v 0 c 3.342,0.437 5.621,3.609 4.95,6.911 v 0 c -0.713,3.504 -4.271,5.598 -7.702,4.597 v 0 c -16.811,-4.903 -33.657,-0.049 -49.644,10.295 v 0 C 82.04,229.217 75.903,264.382 91.558,293.325 v 0 c 16.501,30.508 53.234,39.048 82.934,21.189 v 0 c 6.172,-3.713 11.472,-8.321 15.836,-13.558 v 0 c 6.399,-7.68 16.475,-11.242 26.174,-8.827 v 0 l 0.826,0.205 c 10.879,2.709 16.254,14.93 10.97,24.817 v 0 c -7.605,14.229 -19.256,26.545 -34.48,35.051 v 0 c -13.316,7.439 -27.861,10.98 -42.253,10.98 v 0 c -29.347,10e-4 -58.066,-14.721 -74.488,-41.136"
           style="fill:url(#linearGradient128);stroke:none"
           id="path130"
           inkscape:connector-curvature="0" /></g></g></g></g><g
   id="g132"><g
     id="g134"
     clip-path="url(#clipPath138)"><g
       id="g140"><g
         id="g142" /><g
         id="g208"><g
           clip-path="url(#clipPath146)"
           id="g206"
           style="opacity:0.60000598"><g
             id="g204"><g
               clip-path="url(#clipPath150)"
               id="g202"><g
                 id="g200"><g
                   id="g192" /><g
                   mask="url(#mask168)"
                   id="g198"><g
                     id="g196"><path
                       d="m 159.77,200.751 c -16.812,-4.903 -33.656,-0.049 -49.645,10.295 -28.086,18.172 -34.222,53.336 -18.567,82.279 16.501,30.508 53.234,39.048 82.934,21.189 6.173,-3.712 11.472,-8.321 15.836,-13.559 6.398,-7.68 16.475,-11.241 26.174,-8.826 l 0.826,0.205 c 10.879,2.709 16.255,14.93 10.97,24.817 -7.605,14.229 -19.256,26.545 -34.481,35.051 -40.469,22.609 -92.264,9.213 -116.74,-30.156 -25.803,-41.503 -12.573,-95.945 29.161,-121.04 17.587,-10.575 37.403,-14.23 56.284,-11.763 3.342,0.438 5.621,3.609 4.95,6.911 -0.713,3.504 -4.27,5.598 -7.702,4.597"
                       style="fill:url(#linearGradient190);stroke:none"
                       id="path194"
                       inkscape:connector-curvature="0" /></g></g></g></g></g></g></g></g></g></g><g
   id="g210"><g
     id="g212"
     clip-path="url(#clipPath216)"><g
       id="g218"><g
         id="g220"><path
           d="M 77.077,322.046 C 51.274,280.543 64.504,226.101 106.239,201.006 v 0 c 11.656,-7.01 24.292,-10.96 36.984,-12.121 v 0 C 69.714,202.126 74.431,269.993 88.449,292.927 v 0 c 18.09,29.593 56.343,39.446 86.043,21.587 v 0 c 6.172,-3.713 11.472,-8.321 15.836,-13.558 v 0 c 6.399,-7.68 16.475,-11.242 26.174,-8.827 v 0 l 0.826,0.205 c 10.879,2.709 16.254,14.93 10.97,24.817 v 0 c -7.605,14.229 -19.256,26.545 -34.48,35.051 v 0 c -13.316,7.439 -27.861,10.98 -42.253,10.98 v 0 c -29.347,10e-4 -58.066,-14.721 -74.488,-41.136"
           style="fill:url(#linearGradient226);stroke:none"
           id="path228"
           inkscape:connector-curvature="0" /></g></g></g></g><g
   id="g230"><g
     id="g232"
     clip-path="url(#clipPath236)"><g
       id="g238"><g
         id="g240" /><g
         id="g306"><g
           clip-path="url(#clipPath244)"
           id="g304"
           style="opacity:0.60000598"><g
             id="g302"><g
               clip-path="url(#clipPath248)"
               id="g300"><g
                 id="g298"><g
                   id="g290" /><g
                   mask="url(#mask266)"
                   id="g296"><g
                     id="g294"><path
                       d="m 88.45,292.927 c 18.089,29.593 56.342,39.446 86.042,21.587 6.173,-3.712 11.472,-8.321 15.836,-13.559 6.398,-7.68 16.475,-11.241 26.174,-8.826 l 0.826,0.205 c 10.879,2.709 16.255,14.93 10.97,24.817 -7.604,14.229 -19.256,26.545 -34.481,35.051 -40.469,22.609 -92.264,9.213 -116.74,-30.156 -25.803,-41.503 -12.573,-95.945 29.161,-121.04 11.657,-7.01 24.292,-10.96 36.986,-12.121 -73.51,13.242 -68.793,81.108 -54.774,104.042"
                       style="fill:url(#linearGradient288);stroke:none"
                       id="path292"
                       inkscape:connector-curvature="0" /></g></g></g></g></g></g></g></g></g></g><g
   id="g308"><g
     id="g310"
     clip-path="url(#clipPath314)"><g
       id="g316"><g
         id="g318"><path
           d="M 77.07,322.046 C 67.521,306.686 63.331,289.555 63.941,272.794 v 0 c -0.695,36.126 29.036,61.465 65.433,62.646 v 0 c 36.389,1.18 53.594,-19.749 62.532,-33.454 v 0 c 5.459,-8.373 14.891,-12.272 24.59,-9.857 v 0 l 0.826,0.205 c 10.877,2.709 16.254,14.93 10.969,24.817 v 0 c -7.604,14.229 -19.255,26.545 -34.48,35.051 v 0 c -13.316,7.439 -27.861,10.98 -42.253,10.98 v 0 C 122.211,363.183 93.492,348.461 77.07,322.046"
           style="fill:url(#linearGradient324);stroke:none"
           id="path326"
           inkscape:connector-curvature="0" /></g></g></g></g><g
   id="g328"><g
     id="g330"
     clip-path="url(#clipPath334)"><g
       id="g336"><g
         id="g338" /><g
         id="g362"
         mask="url(#mask350)"><g
           id="g364"><path
             d="M 129.374,338.679 C 92.977,337.498 63.246,312.159 63.941,276.034 v 0 c -0.019,0.52 -0.019,1.042 -0.029,1.563 v 0 c -0.03,-1.603 -0.03,-3.205 0.029,-4.803 v 0 c -0.695,36.126 29.036,61.465 65.433,62.646 v 0 c 36.389,1.18 53.594,-19.749 62.532,-33.454 v 0 c 5.459,-8.373 14.891,-12.272 24.59,-9.857 v 0 l 0.825,0.205 c 8.566,2.133 13.714,10.162 12.94,18.306 v 0 c -0.66,-6.942 -5.518,-13.218 -12.94,-15.067 v 0 l -0.825,-0.205 c -9.699,-2.414 -19.131,1.484 -24.59,9.857 v 0 c -8.694,13.332 -25.216,33.501 -59.606,33.502 v 0 c -0.962,0 -1.935,-0.016 -2.926,-0.048"
             style="fill:url(#linearGradient370);stroke:none"
             id="path372"
             inkscape:connector-curvature="0" /></g></g></g></g></g><g
   id="g374"><g
     id="g376"
     clip-path="url(#clipPath380)"><g
       id="g382"><g
         id="g384"><path
           d="m 172.341,200.138 c 0,-3.489 2.829,-6.317 6.318,-6.317 v 0 c 3.489,0 6.318,2.828 6.318,6.317 v 0 c 0,3.49 -2.829,6.318 -6.318,6.318 v 0 c -3.489,0 -6.318,-2.828 -6.318,-6.318"
           style="fill:url(#linearGradient390);stroke:none"
           id="path392"
           inkscape:connector-curvature="0" /></g></g></g></g><g
   id="g394"><g
     id="g396"
     clip-path="url(#clipPath400)"><g
       id="g402"><g
         id="g404" /><g
         id="g430"
         mask="url(#mask418)"><g
           id="g432"><path
             d="m 110.126,208.885 c 15.987,-10.345 32.833,-15.2 49.644,-10.296 v 0 c 3.431,1.002 6.989,-1.092 7.702,-4.596 v 0 c 0.005,-0.023 0.005,-0.046 0.01,-0.069 v 0 c 0.136,0.715 0.145,1.469 -0.01,2.231 v 0 c -0.713,3.503 -4.271,5.597 -7.702,4.596 v 0 c -16.811,-4.903 -33.657,-0.049 -49.644,10.295 v 0 C 92.345,222.55 83.374,240.863 83.147,260.097 v 0 c -0.444,-20.016 8.533,-39.278 26.979,-51.212"
             style="fill:url(#linearGradient440);stroke:none"
             id="path442"
             inkscape:connector-curvature="0" /></g></g></g></g></g><g
   id="g444"><g
     id="g446"
     clip-path="url(#clipPath450)"><g
       id="g452"><g
         id="g454"><path
           d="m 188.858,207.994 c 0,-2.551 2.067,-4.618 4.618,-4.618 v 0 c 2.55,0 4.618,2.067 4.618,4.618 v 0 c 0,2.55 -2.068,4.617 -4.618,4.617 v 0 c -2.551,0 -4.618,-2.067 -4.618,-4.617"
           style="fill:url(#linearGradient460);stroke:none"
           id="path462"
           inkscape:connector-curvature="0" /></g></g></g></g><g
   id="g464"><g
     id="g466"
     clip-path="url(#clipPath470)"><g
       id="g472"><g
         id="g474"><path
           d="m 200.892,215.589 c 0,-1.645 1.333,-2.978 2.978,-2.978 v 0 c 1.645,0 2.978,1.333 2.978,2.978 v 0 c 0,1.644 -1.333,2.978 -2.978,2.978 v 0 c -1.645,0 -2.978,-1.334 -2.978,-2.978"
           style="fill:url(#linearGradient480);stroke:none"
           id="path482"
           inkscape:connector-curvature="0" /></g></g></g></g><g
   id="g484"><g
     id="g486"
     clip-path="url(#clipPath490)"><g
       id="g492"><g
         id="g494" /><g
         id="g518"
         mask="url(#mask506)"><g
           id="g520"><path
             d="M 85.911,292.927 C 72.227,270.538 67.42,205.339 135.588,189.93 v 0 c 2.538,-0.46 5.086,-0.812 7.635,-1.045 v 0 C 69.714,202.126 74.431,269.993 88.449,292.927 v 0 c 11.709,19.155 31.868,30.025 52.685,30.476 v 0 c -0.396,0.008 -0.793,0.012 -1.189,0.012 v 0 c -21.292,0 -42.071,-10.919 -54.034,-30.488"
             style="fill:url(#linearGradient526);stroke:none"
             id="path528"
             inkscape:connector-curvature="0" /></g></g></g></g></g>
</g></svg>